# xmcd
#
# Track frame offsets:
# 150
# 15287
# 33247
# 46895
# 57690
# 70339
# 85961
# 100251
# 117957
# 133284
# 148451
# 165038
# 183640
# 197994
# 207998
# 220270
# 233594
# 258169
# 269682
# 279529
# 293325
# 307986
# 317612
#
# Disc length: 4444 seconds
#
#
# Revision: 0
# Processed by: cddbd v1.4PL0 Copyright (c) Steve Scherf et al.
# Submitted via: FreeRIP 2.30 
#
DISCID=57115a17
DTITLE=Καλαματιανά Συρτά - Καγκέλια
DYEAR=2003
DGENRE=
TTITLE0=Μια Βλάχα μια Παλιόβλαχα
TTITLE1=Μια Χήρα πούλαγε κρασί
TTITLE2=Πάρε Μαριώ Την Ρόκα Σου
TTITLE3=Διαμάντι Δαχτυλίδι
TTITLE4=Φοράς καινούργια Φορεσιά
TTITLE5=Μαντζουράνα
TTITLE6=Μπήκαν τα γήδια στο μαντρί
TTITLE7=Μαλάμω
TTITLE8=Να'χα νεράτζια Νά'ριχνα
TTITLE9=Ολα τα πουλάκια
TTITLE10=Αυτά τα μάτια τα γλυκά
TTITLE11=Ολες οι παπαρούνες
TTITLE12=Πάνω σε ψιλή ραχούλα
TTITLE13=Σουλιμιώτισσα
TTITLE14=Τσοπανάκος
TTITLE15=Αριστείδης
TTITLE16=Σκαρνάτα Βλάχα
TTITLE17=Στην κεντημένη σου ποδιά
TTITLE18=Τα ματάκια σου τα μαύρα
TTITLE19=Κάτω στην Αλεξάνδρεια
TTITLE20=Σιγάλα βρέχει ο Ουρανός
TTITLE21=Στη βρύση στη κρυόβρυση
TTITLE22=Καραγκούνα
EXTD=
EXTT0=
EXTT1=
EXTT2=
EXTT3=
EXTT4=
EXTT5=
EXTT6=
EXTT7=
EXTT8=
EXTT9=
EXTT10=
EXTT11=
EXTT12=
EXTT13=
EXTT14=
EXTT15=
EXTT16=
EXTT17=
EXTT18=
EXTT19=
EXTT20=
EXTT21=
EXTT22=
PLAYORDER=
